Coordinates
version=1
nRows=23
nColumns=28
inDegrees=yes

Units are S.I. units (second, meters, Newtons, ...)
If the header above contains a line with 'inDegrees', this indicates whether rotational values are in degrees (yes) or radians (no).

endheader
time	pelvis_tilt	pelvis_list	pelvis_rotation	pelvis_tx	pelvis_ty	pelvis_tz	hip_flexion_r	hip_adduction_r	hip_rotation_r	knee_angle_r	knee_rotation_r	knee_adduction_r	ankle_angle_r	subtalar_angle_r	mtp_angle_r	hip_flexion_l	hip_adduction_l	hip_rotation_l	knee_angle_l	knee_rotation_l	knee_adduction_l	ankle_angle_l	subtalar_angle_l	mtp_angle_l	lumbar_extension	lumbar_bending	lumbar_rotation
      0.00000000	     -6.63545702	      8.65490286	    -96.47521840	     -0.21766443	      0.95740912	     -0.95698626	      6.26441907	      8.62652484	     17.07256348	    -11.60626827	    -21.01354786	      5.52447920	     11.78797814	     -8.04923688	     -0.88900240	     40.86132539	    -13.64515278	     -1.21809216	    -29.67458404	     17.03048258	     -7.38188953	     14.43462954	      4.74334889	     -0.14951281	      0.00000000	      0.00000000	      0.00000000
      0.01000000	     -6.39904643	      8.96526673	    -96.46356434	     -0.21763182	      0.95640151	     -0.94581309	      5.87430140	      8.17112188	     16.57377082	    -11.65438877	    -20.79940420	      5.75755292	     12.55283611	     -7.56521171	     -0.90444085	     40.57404696	    -12.76570776	     -1.90967950	    -25.43567637	     18.26098483	     -5.84715916	     14.41705641	      7.42582640	     -0.05427859	      0.00000000	      0.00000000	      0.00000000
      0.02000000	     -6.16740155	      9.06461050	    -96.51109024	     -0.21742410	      0.95536711	     -0.93464996	      5.31127721	      7.66129236	     16.09169170	    -11.81403338	    -20.63615245	      6.07731796	     13.26715244	     -6.77415942	     -0.83115619	     40.08043952	    -11.88982203	     -2.80188540	    -21.28446482	     18.64245309	     -4.15452654	     14.58468073	      9.35743814	      0.23712195	      0.00000000	      0.00000000	      0.00000000
      0.03000000	     -5.93608488	      9.22192948	    -96.47051136	     -0.21698390	      0.95422376	     -0.92338234	      4.88122281	      7.15430963	     15.41096130	    -12.04976218	    -20.40283720	      6.35655731	     13.94796394	     -6.31469239	     -0.74123681	     39.62040912	    -10.95526999	     -3.49549375	    -17.24536782	     18.89865564	     -2.62416775	     14.75063862	     10.99023408	      0.69406863	      0.00000000	      0.00000000	      0.00000000
      0.04000000	     -5.44299563	      9.30668082	    -96.48842420	     -0.21650659	      0.95328674	     -0.91192370	      4.46555889	      6.32340116	     14.68936513	    -12.47680682	    -19.95801964	      6.70979356	     14.68408517	     -5.64648601	     -0.63494551	     38.93070910	     -9.85107567	     -4.02503142	    -13.27967991	     18.46611775	     -1.45092243	     14.65620899	     10.96677207	      1.50673784	      0.00000000	      0.00000000	      0.00000000
      0.05000000	     -4.96377483	      9.57021705	    -96.70317560	     -0.21700933	      0.95184015	     -0.90055801	      4.41805490	      5.71106293	     14.17661984	    -13.23782906	    -19.71479695	      6.94903110	     15.44930029	     -4.99613576	     -0.49836092	     38.19439420	     -9.14372854	     -3.61140417	     -9.37792933	     18.12567339	     -1.05445464	     14.05647602	      8.90380529	      1.98101271	      0.00000000	      0.00000000	      0.00000000
      0.06000000	     -4.74516306	      9.62278486	    -96.97244746	     -0.21719046	      0.95043534	     -0.88903578	      4.06138304	      5.29562534	     13.92087401	    -13.86812063	    -19.42738282	      7.23570126	     16.10507151	     -4.62011040	     -0.39787960	     37.60118891	     -8.66118896	     -3.36832094	     -6.48485433	     18.06229671	     -0.44972697	     13.77213300	      7.55462419	      2.09914585	      0.00000000	      0.00000000	      0.00000000
      0.07000000	     -4.71685217	      9.76120694	    -97.33299799	     -0.21788482	      0.94870548	     -0.87774056	      3.85871276	      5.21973092	     13.89060814	    -14.61102522	    -19.09437519	      7.38013520	     16.61801065	     -4.58921574	     -0.36801223	     37.48032131	     -8.53771077	     -2.87225708	     -4.75409121	     18.72565214	      0.08452432	     13.67956740	      7.11627391	      1.96691192	      0.00000000	      0.00000000	      0.00000000
      0.08000000	     -4.78642338	      9.83133272	    -97.72466629	     -0.21856787	      0.94705045	     -0.86653768	      3.62485800	      5.21780759	     13.98152479	    -15.42784059	    -18.89805213	      7.55921361	     17.02145185	     -4.36774160	     -0.32108703	     37.60391446	     -8.59269486	     -2.06223709	     -4.04573053	     20.35602064	      0.52523567	     13.61178077	      7.57831102	      1.72157892	      0.00000000	      0.00000000	      0.00000000
      0.09000000	     -4.87843021	      9.78078850	    -97.88756923	     -0.21944939	      0.94520416	     -0.85460277	      3.19016289	      5.33100457	     13.55672382	    -16.17281697	    -18.42478992	      7.39714183	     17.38785046	     -3.93933450	     -0.31840568	     37.87359032	     -8.70810151	     -0.98363094	     -4.32588389	     22.66182530	      0.61471138	     14.04288065	      9.19299756	      1.43918576	      0.00000000	      0.00000000	      0.00000000
      0.10000000	     -5.21632773	      9.76140436	    -98.34414083	     -0.21986513	      0.94352767	     -0.84330833	      2.88446841	      5.56962526	     13.87082266	    -17.09434537	    -18.20962534	      7.56805863	     17.53874876	     -3.87130074	     -0.32672009	     38.21266542	     -9.13911237	      0.30756829	     -5.07954497	     24.87151870	      0.70503533	     14.31927822	     10.31405233	      1.39576125	      0.00000000	      0.00000000	      0.00000000
      0.11000000	     -5.51188112	      9.90872706	    -98.63196337	     -0.22002608	      0.94169076	     -0.83126789	      2.66792749	      5.74968027	     13.78407362	    -17.87358081	    -17.72867198	      7.62955509	     17.52989492	     -3.76234385	     -0.38393596	     38.92378238	     -9.53001895	      1.20406195	     -6.66846300	     26.16662928	      0.48154291	     14.89974916	     10.93528222	      1.53830468	      0.00000000	      0.00000000	      0.00000000
      0.12000000	     -5.88345621	     10.16030092	    -99.03705300	     -0.22028301	      0.93976048	     -0.81922201	      2.59971343	      6.02396818	     14.05942041	    -18.73995506	    -17.16530402	      7.76086658	     17.30480204	     -3.87426764	     -0.64355004	     39.77726241	    -10.18421481	      1.78867655	     -8.77027053	     26.35141663	     -0.09098257	     15.18663313	     10.15534630	      1.86356159	      0.00000000	      0.00000000	      0.00000000
      0.13000000	     -6.13626003	     10.09563946	    -99.35448746	     -0.22035642	      0.93842806	     -0.80702633	      2.23144754	      6.11258662	     14.16159535	    -19.65243713	    -16.72174983	      7.81993971	     17.15203657	     -3.68259950	     -0.75798867	     40.30325613	    -10.63019514	      1.79878247	    -11.14057113	     25.51771057	     -0.70163040	     15.51410358	      8.91682520	      1.98316535	      0.00000000	      0.00000000	      0.00000000
      0.14000000	     -6.36836894	     10.18172318	    -99.78058865	     -0.22054633	      0.93698407	     -0.79442327	      2.06980376	      6.16532413	     14.40819952	    -20.67525531	    -16.38858219	      7.96587703	     16.87074412	     -3.49440099	     -0.96812927	     40.75064832	    -11.24068449	      1.55670855	    -13.40925626	     24.00263817	     -1.54821560	     15.43013451	      6.77148369	      2.05754467	      0.00000000	      0.00000000	      0.00000000
      0.15000000	     -6.53358161	     10.17865486	   -100.16128002	     -0.22077049	      0.93579613	     -0.78136304	      1.75531017	      6.16102004	     14.59638866	    -21.54412770	    -15.86156876	      7.99863233	     16.33155914	     -3.57621361	     -1.11442838	     40.93287911	    -11.76015159	      0.90109057	    -15.38623984	     22.51700968	     -2.24551768	     15.39917125	      5.78048572	      2.12846063	      0.00000000	      0.00000000	      0.00000000
      0.16000000	     -6.39083697	     10.11713563	   -100.58252731	     -0.22055630	      0.93496948	     -0.76793135	      1.62299397	      5.72202913	     14.38046169	    -22.75534577	    -15.16138243	      8.13449789	     15.80952901	     -3.48136998	     -1.24742035	     40.81578292	    -11.88789980	     -0.27107324	    -16.82008068	     20.62640976	     -2.61307045	     15.33879719	      4.66848538	      2.31541296	      0.00000000	      0.00000000	      0.00000000
      0.17000000	     -6.03286047	      9.97755960	   -100.80436055	     -0.21979666	      0.93440752	     -0.75389333	      1.44050553	      4.93288045	     13.66842109	    -23.92562595	    -14.12215216	      8.25425929	     15.17315028	     -3.47217578	     -1.35071703	     40.46942810	    -11.50002645	     -1.70948135	    -17.60866166	     18.84891982	     -2.60620628	     14.95100567	      3.92377570	      2.79875774	      0.00000000	      0.00000000	      0.00000000
      0.18000000	     -5.26560249	      9.74235138	   -101.10384688	     -0.21889291	      0.93435350	     -0.73989391	      1.37889414	      3.68131122	     13.29922240	    -25.28665222	    -13.11641525	      8.52764687	     14.35671947	     -3.77235691	     -1.46895282	     39.87145914	    -10.56770626	     -3.65987330	    -17.75274249	     16.31974287	     -2.06424386	     13.68016781	      2.30135925	      3.60996686	      0.00000000	      0.00000000	      0.00000000
      0.19000000	     -4.47969999	      9.48890738	   -101.36120790	     -0.21809041	      0.93457156	     -0.72631326	      1.53205908	      2.42369350	     12.90915273	    -26.94331577	    -12.12178867	      8.82284786	     13.31641953	     -4.03555596	     -1.63494516	     39.19144777	     -9.58300029	     -5.33685119	    -17.63579415	     13.31810014	     -1.48312880	     11.33492019	     -0.60630677	      4.45760449	      0.00000000	      0.00000000	      0.00000000
      0.20000000	     -3.42254862	      9.47871862	   -101.53036565	     -0.21709737	      0.93456268	     -0.71279830	      2.17782041	      0.94423876	     12.63088185	    -28.83353666	    -11.17603318	      9.18478570	     12.09204790	     -4.53189777	     -1.64477357	     38.82854529	     -8.27292682	     -6.75841576	    -17.60630221	     10.59372820	     -0.70555954	      9.15723416	     -3.27661212	      4.96735951	      0.00000000	      0.00000000	      0.00000000
      0.21000000	     -2.56657832	      9.45120860	   -101.46359757	     -0.21587336	      0.93467990	     -0.70019174	      3.06095453	     -0.25716386	     12.34670417	    -31.09159332	    -10.26463195	      9.57666510	     10.26908281	     -5.52987266	     -1.62349572	     38.54940308	     -7.09495066	     -6.98271856	    -17.90712509	      8.67126604	     -0.25422617	      7.20320880	     -6.54573752	      5.09118079	      0.00000000	      0.00000000	      0.00000000
      0.22000000	     -1.59765704	      9.51477800	   -101.20042324	     -0.21428691	      0.93455632	     -0.68805870	      4.30987732	     -1.65616709	     12.32960539	    -33.71055356	     -9.68104487	     10.36389976	      8.40603038	     -6.21510182	     -1.54811174	     38.58422319	     -5.95461690	     -6.05971332	    -18.74080219	      8.72124064	     -0.57648179	      5.82357247	     -9.11246354	      4.81372171	      0.00000000	      0.00000000	      0.00000000
